<svg width="216" height="789" viewBox="0 0 216 789" fill="none" xmlns="http://www.w3.org/2000/svg">
<rect x="104" width="8" height="318" fill="#121111"/>
<rect x="105" width="2" height="318" fill="#181818"/>
<path d="M95.2673 319.87C95.3374 318.819 96.21 318.003 97.2629 318.003H119.356C120.409 318.003 121.282 318.819 121.352 319.87L124.397 365.553C124.474 366.707 123.558 367.686 122.402 367.686H94.2174C93.0604 367.686 92.1448 366.707 92.2218 365.553L95.2673 319.87Z" fill="#1B1816"/>
<path d="M92.0796 366.361H124.539V386.897H92.0796V366.361Z" fill="#1B1816"/>
<path d="M94.9338 319.875C95.0013 318.822 95.8748 318.003 96.9297 318.003H116.377C117.432 318.003 118.305 318.822 118.373 319.875L121.091 362.246C121.165 363.398 120.25 364.374 119.095 364.374H94.212C93.057 364.374 92.1422 363.398 92.2161 362.246L94.9338 319.875Z" fill="#23211F"/>
<path d="M73.5311 408.758C73.5311 395.587 84.2082 384.91 97.3791 384.91H119.24C132.411 384.91 143.088 395.587 143.088 408.758H73.5311Z" fill="#1B1816"/>
<rect x="64.257" y="408.757" width="88.105" height="22.5231" rx="5" fill="#1B1816"/>
<path d="M68.2316 431.281H147.725V471.327C147.725 474.088 145.486 476.327 142.725 476.327H73.2316C70.4701 476.327 68.2316 474.088 68.2316 471.327V431.281Z" fill="#1B1816"/>
<path d="M92.0796 366.361H121.227V386.897H92.0796V366.361Z" fill="#23211F"/>
<path d="M71.5438 476.327H145.075V524.322C145.075 527.084 142.836 529.322 140.075 529.322H76.5438C73.7824 529.322 71.5438 527.084 71.5438 524.322V476.327Z" fill="#1B1816"/>
<rect x="68.894" y="515.411" width="78.1683" height="9.93665" rx="3" fill="#1B1816"/>
<rect x="68.894" y="488.913" width="78.1683" height="9.93665" rx="3" fill="#1B1816"/>
<rect x="78.1682" y="529.322" width="60.2824" height="9.93665" fill="#1B1816"/>
<path d="M72.2063 408.758C72.2063 395.587 82.8834 384.91 96.0543 384.91H111.29C124.461 384.91 135.138 395.587 135.138 408.758H72.2063Z" fill="#23211F"/>
<path d="M64.257 415.082C64.257 412.321 66.4955 410.082 69.257 410.082H133.151C138.639 410.082 143.088 414.531 143.088 420.019C143.088 425.507 138.639 429.956 133.151 429.956H69.257C66.4955 429.956 64.257 427.717 64.257 424.956V415.082Z" fill="#23211F"/>
<path d="M68.2316 431.281H138.451V466.327C138.451 471.85 133.973 476.327 128.451 476.327H73.2316C70.4701 476.327 68.2316 474.088 68.2316 471.327V431.281Z" fill="#23211F"/>
<path d="M70.8813 525.348H136.463C136.463 527.543 134.684 529.322 132.489 529.322H74.856C72.6609 529.322 70.8813 527.543 70.8813 525.348Z" fill="#23211F"/>
<rect x="71.5438" y="498.85" width="65.5819" height="16.5611" fill="#23211F"/>
<rect x="71.5438" y="477.652" width="65.5819" height="11.2615" fill="#23211F"/>
<path d="M68.894 519.736C68.894 518.079 70.2372 516.736 71.894 516.736H136.132C138.144 516.736 139.775 518.367 139.775 520.379C139.775 522.391 138.144 524.023 136.132 524.023H71.894C70.2372 524.023 68.894 522.679 68.894 521.023V519.736Z" fill="#23211F"/>
<path d="M68.894 493.238C68.894 491.581 70.2372 490.238 71.894 490.238H136.132C138.144 490.238 139.775 491.869 139.775 493.881C139.775 495.894 138.144 497.525 136.132 497.525H71.894C70.2372 497.525 68.894 496.182 68.894 494.525V493.238Z" fill="#23211F"/>
<path d="M76.8434 529.322H130.501V536.259C130.501 537.916 129.158 539.259 127.501 539.259H76.8434V529.322Z" fill="#23211F"/>
<path d="M90.0923 538.596H125.864V547.195C125.864 548.3 124.969 549.195 123.864 549.195H92.0923C90.9877 549.195 90.0923 548.3 90.0923 547.195V538.596Z" fill="#4F4D4C"/>
<path d="M104.666 554.495H111.953V608.803C111.953 609.907 111.057 610.803 109.953 610.803H106.666C105.561 610.803 104.666 609.907 104.666 608.803V554.495Z" fill="#4F4D4C"/>
<path d="M76.8434 581.081C76.8434 575.179 81.6283 570.394 87.5308 570.394H128.426C134.328 570.394 139.113 575.179 139.113 581.081C139.113 583.227 137.373 584.967 135.227 584.967H80.7297C78.5834 584.967 76.8434 583.227 76.8434 581.081Z" fill="#4F4D4C"/>
<path d="M95.8111 549.426C95.256 546.928 97.1568 544.558 99.7158 544.558H116.418C118.919 544.558 120.807 546.828 120.351 549.287L118.521 559.173C118.17 561.069 116.516 562.444 114.588 562.444H101.913C100.038 562.444 98.4147 561.142 98.008 559.312L95.8111 549.426Z" fill="#4F4D4C"/>
<path d="M103.01 584.636C94.3982 590.046 76.9759 602.456 76.181 608.815C75.1873 616.765 137.126 606.828 145.738 611.796C154.349 616.765 82.4742 613.121 70.219 618.09C57.9638 623.058 27.1602 635.644 52.6642 631.67C75.7211 628.076 134.511 612.031 151.7 616.082M107.647 670.15C126.452 670.984 146.369 673.12 147.394 673.735C149.05 674.728 175.547 672.741 179.522 663.467C183.497 654.193 131.826 649.224 97.3791 655.849C62.9321 662.473 60.6135 665.123 39.7466 670.754C18.8796 676.385 49.0208 658.499 54.6515 652.205C60.2823 645.912 103.01 645.912 138.451 641.606C173.891 637.3 145.738 649.556 163.955 652.205C182.172 654.855 188.465 640.613 168.592 631.67C148.719 622.727 87.4425 641.275 76.181 643.925C64.9195 646.575 42.3963 643.925 64.9194 634.982C87.4425 626.039 144.413 623.389 147.394 623.389C150.375 623.389 167.598 629.682 168.592 625.045C169.585 620.408 163.955 627.695 155.674 618.09C154.88 617.168 153.524 616.511 151.7 616.082M107.647 670.15C96.0586 669.636 84.8926 669.617 78.8307 670.754C62.9321 673.735 48.0271 679.366 48.3583 681.684C48.6895 684.003 45.0461 684.996 60.6135 686.321C76.181 687.646 102.347 679.034 109.634 678.703C116.921 678.372 152.362 674.397 163.955 681.684C175.547 688.971 180.516 692.946 174.554 693.939C168.592 694.933 174.223 690.296 147.394 688.309C120.565 686.321 53.6579 692.283 51.0081 695.264C48.3583 698.245 41.7339 705.863 46.371 705.863C51.0081 705.863 51.0081 700.895 60.6135 700.564C70.219 700.233 155.125 687.933 172.566 702.882C179.522 708.844 171.57 715.421 163.955 719.443C116.921 744.285 85.1239 737.661 147.394 714.475C153.908 709.617 161.967 702.882 100.36 725.405C34.2666 749.569 54.6515 724.934 120.896 705.863C132.827 702.429 161.305 695.264 104.335 702.882C82.2214 705.839 69.2253 718.693 64.9194 705.863C60.6135 693.033 76.5121 677.498 89.761 673.735C100.36 670.724 106.101 670.09 107.647 670.15ZM151.7 616.082C151.037 615.939 152.693 600.535 123.546 584.636" stroke="#2D2C2A" stroke-width="2" stroke-linecap="round"/>
<g filter="url(#filter0_b_52_159)">
<path d="M59.6143 575.597C69.4547 563.551 78.8234 546.857 80.1482 539.259H136.119C140.094 555.446 146.684 564.981 154.666 575.597C174.538 602.024 215.957 613.587 215.957 686.923C215.957 756.626 161.973 789 109.644 789C63.2775 789 -1.30471 759.599 0.0200575 684.941C1.34482 610.283 37.7558 602.355 59.6143 575.597Z" fill="#4F4D4C" fill-opacity="0.3"/>
</g>
<g filter="url(#filter1_f_52_159)">
<path d="M124.603 537.953H116.617C116.065 537.953 115.617 537.501 115.618 536.948C115.625 529.354 115.802 528.414 120.156 528.414C120.481 528.414 121.01 527.417 121.241 526.339C121.356 525.799 121.802 525.348 122.355 525.348H130.34C130.892 525.348 131.35 525.804 131.186 526.332C130.85 527.413 129.963 528.414 128.544 528.414C126.692 528.414 125.603 529.095 125.603 529.436V536.953C125.603 537.505 125.155 537.953 124.603 537.953Z" fill="#FAFAFA" fill-opacity="0.7"/>
<rect x="121.948" y="518.723" width="9.58595" height="4.6371" rx="1" fill="#FAFAFA" fill-opacity="0.7"/>
<rect x="120.35" y="502.162" width="9.58595" height="12.5864" rx="1" fill="#FAFAFA" fill-opacity="0.7"/>
<rect x="127.54" y="412.732" width="9.58595" height="16.5611" rx="1" fill="#FAFAFA" fill-opacity="0.7"/>
<rect x="121.948" y="492.225" width="9.58595" height="4.6371" rx="1" fill="#FAFAFA" fill-opacity="0.7"/>
<rect x="120.35" y="480.964" width="9.58595" height="7.28688" rx="1" fill="#FAFAFA" fill-opacity="0.7"/>
<rect x="121.948" y="433.93" width="9.58595" height="41.7339" rx="1" fill="#FAFAFA" fill-opacity="0.7"/>
<path d="M110.134 375.928C110.035 378.652 109.792 386.271 110.171 386.391C122.94 390.423 122.94 398.158 122.94 406.776C122.944 406.811 122.947 406.846 122.949 406.882C122.973 407.391 123.327 407.777 123.837 407.777H130.745C131.295 407.777 131.742 407.333 131.743 406.783C131.743 406.476 131.743 406.195 131.739 406.108C131.115 390.54 119.734 386.897 118.353 386.391C117.247 385.985 117.914 378.894 118.223 376.095C118.289 375.497 117.821 374.973 117.219 374.973H111.131C110.594 374.973 110.154 375.392 110.134 375.928Z" fill="#FAFAFA" fill-opacity="0.7"/>
<g filter="url(#filter2_f_52_159)">
<path d="M71.8751 525.348V525.348C72.8688 527.004 74.1937 527.004 76.8435 527.004C79.0034 527.004 81.4806 527.997 81.4806 530.316C81.4806 535.284 85.4081 535.594 92.0796 536.278C104.997 537.603 128.845 537.603 128.845 537.603H85.7864C76.5122 537.603 78.4996 532.966 78.4996 530.316C78.4996 528.66 77.5059 528.66 75.8498 528.66C71.8751 528.66 71.8751 526.341 71.8751 525.348Z" fill="#FAFAFA" fill-opacity="0.5"/>
</g>
<g filter="url(#filter3_f_52_159)">
<path d="M69.5565 518.392C70.5503 524.023 90.0923 523.029 112.615 523.691C86.6869 523.691 71.5439 524.023 70.8815 523.36C69.5566 521.704 69.5565 519.855 69.5565 518.392Z" fill="#FAFAFA" fill-opacity="0.5"/>
</g>
<g filter="url(#filter4_f_52_159)">
<path d="M69.5566 491.563C70.5504 497.194 90.0925 496.2 112.616 496.862C86.687 496.862 71.5441 497.194 70.8816 496.531C69.5567 494.875 69.5566 493.026 69.5566 491.563Z" fill="#FAFAFA" fill-opacity="0.5"/>
</g>
<g filter="url(#filter5_f_52_159)">
<path d="M201.714 683.009C205.026 730.043 183.497 750.91 142.094 771.776L134.145 766.477C179.986 744.749 194.538 700.012 194.427 682.015L201.714 683.009Z" fill="#FAFAFA" fill-opacity="0.5"/>
</g>
</g>
<rect x="52.333" y="439.23" width="40.409" height="14.5738" rx="7.28688" fill="#1B1816"/>
<path d="M36.4343 453.236C36.4343 457.94 40.2476 461.753 44.9515 461.753C53.4184 461.753 60.2823 454.889 60.2823 446.422L60.2823 441.312C60.2823 432.845 53.4184 425.981 44.9515 425.981C40.2476 425.981 36.4343 429.794 36.4343 434.498L36.4343 453.236Z" fill="#1B1816"/>
<path d="M54.9828 437.905C54.9828 431.319 49.6442 425.981 43.0588 425.981C36.4734 425.981 31.1348 431.32 31.1348 437.905V449.829C31.1348 456.414 36.4734 461.753 43.0588 461.753C49.6442 461.753 54.9828 456.414 54.9828 449.829V437.905Z" fill="#23211F"/>
<g filter="url(#filter6_f_52_159)">
<path d="M52.0018 456.785C39.4154 464.072 32.791 455.791 32.1285 445.854C30.1412 455.46 39.7466 467.384 52.0018 456.785Z" fill="#FAFAFA" fill-opacity="0.6"/>
</g>
<defs>
<filter id="filter0_b_52_159" x="-3" y="536.259" width="221.957" height="255.741" filterUnits="userSpaceOnUse" color-interpolation-filters="sRGB">
<feFlood flood-opacity="0" result="BackgroundImageFix"/>
<feGaussianBlur in="BackgroundImageFix" stdDeviation="1.5"/>
<feComposite in2="SourceAlpha" operator="in" result="effect1_backgroundBlur_52_159"/>
<feBlend mode="normal" in="SourceGraphic" in2="effect1_backgroundBlur_52_159" result="shape"/>
</filter>
<filter id="filter1_f_52_159" x="68.0565" y="373.473" width="135.49" height="399.804" filterUnits="userSpaceOnUse" color-interpolation-filters="sRGB">
<feFlood flood-opacity="0" result="BackgroundImageFix"/>
<feBlend mode="normal" in="SourceGraphic" in2="BackgroundImageFix" result="shape"/>
<feGaussianBlur stdDeviation="0.75" result="effect1_foregroundBlur_52_159"/>
</filter>
<filter id="filter2_f_52_159" x="69.8751" y="523.348" width="60.9701" height="16.2552" filterUnits="userSpaceOnUse" color-interpolation-filters="sRGB">
<feFlood flood-opacity="0" result="BackgroundImageFix"/>
<feBlend mode="normal" in="SourceGraphic" in2="BackgroundImageFix" result="shape"/>
<feGaussianBlur stdDeviation="1" result="effect1_foregroundBlur_52_159"/>
</filter>
<filter id="filter3_f_52_159" x="67.5565" y="516.392" width="47.0588" height="9.38232" filterUnits="userSpaceOnUse" color-interpolation-filters="sRGB">
<feFlood flood-opacity="0" result="BackgroundImageFix"/>
<feBlend mode="normal" in="SourceGraphic" in2="BackgroundImageFix" result="shape"/>
<feGaussianBlur stdDeviation="1" result="effect1_foregroundBlur_52_159"/>
</filter>
<filter id="filter4_f_52_159" x="67.5566" y="489.563" width="47.0588" height="9.38232" filterUnits="userSpaceOnUse" color-interpolation-filters="sRGB">
<feFlood flood-opacity="0" result="BackgroundImageFix"/>
<feBlend mode="normal" in="SourceGraphic" in2="BackgroundImageFix" result="shape"/>
<feGaussianBlur stdDeviation="1" result="effect1_foregroundBlur_52_159"/>
</filter>
<filter id="filter5_f_52_159" x="131.145" y="679.015" width="73.902" height="95.7611" filterUnits="userSpaceOnUse" color-interpolation-filters="sRGB">
<feFlood flood-opacity="0" result="BackgroundImageFix"/>
<feBlend mode="normal" in="SourceGraphic" in2="BackgroundImageFix" result="shape"/>
<feGaussianBlur stdDeviation="1.5" result="effect1_foregroundBlur_52_159"/>
</filter>
<filter id="filter6_f_52_159" x="29.8671" y="443.854" width="24.1348" height="19.0817" filterUnits="userSpaceOnUse" color-interpolation-filters="sRGB">
<feFlood flood-opacity="0" result="BackgroundImageFix"/>
<feBlend mode="normal" in="SourceGraphic" in2="BackgroundImageFix" result="shape"/>
<feGaussianBlur stdDeviation="1" result="effect1_foregroundBlur_52_159"/>
</filter>
</defs>
</svg>
