<svg width="216" height="789" viewBox="0 0 216 789" fill="none" xmlns="http://www.w3.org/2000/svg">
<rect x="104" width="8" height="318" fill="#121111"/>
<rect x="105" width="2" height="318" fill="#181818"/>
<path d="M95.2673 319.87C95.3374 318.819 96.21 318.003 97.2629 318.003H119.356C120.409 318.003 121.282 318.819 121.352 319.87L124.397 365.553C124.474 366.707 123.558 367.686 122.402 367.686H94.2174C93.0604 367.686 92.1448 366.707 92.2218 365.553L95.2673 319.87Z" fill="#1B1816"/>
<path d="M92.0796 366.361H124.539V386.897H92.0796V366.361Z" fill="#1B1816"/>
<path d="M94.9338 319.875C95.0013 318.822 95.8748 318.003 96.9297 318.003H116.377C117.432 318.003 118.305 318.822 118.373 319.875L121.091 362.246C121.165 363.398 120.25 364.374 119.095 364.374H94.212C93.057 364.374 92.1422 363.398 92.2161 362.246L94.9338 319.875Z" fill="#23211F"/>
<path d="M73.5312 408.758C73.5312 395.587 84.2083 384.91 97.3792 384.91H119.24C132.411 384.91 143.088 395.587 143.088 408.758H73.5312Z" fill="#1B1816"/>
<rect x="64.2568" y="408.757" width="88.105" height="22.5231" rx="5" fill="#1B1816"/>
<path d="M68.2314 431.281H147.725V471.327C147.725 474.088 145.486 476.327 142.725 476.327H73.2315C70.47 476.327 68.2314 474.088 68.2314 471.327V431.281Z" fill="#1B1816"/>
<path d="M92.0796 366.361H121.227V386.897H92.0796V366.361Z" fill="#23211F"/>
<path d="M71.5439 476.327H145.075V524.322C145.075 527.084 142.837 529.322 140.075 529.322H76.5439C73.7825 529.322 71.5439 527.084 71.5439 524.322V476.327Z" fill="#1B1816"/>
<rect x="68.894" y="515.411" width="78.1683" height="9.93665" rx="3" fill="#1B1816"/>
<rect x="68.894" y="488.913" width="78.1683" height="9.93665" rx="3" fill="#1B1816"/>
<rect x="78.168" y="529.322" width="60.2824" height="9.93665" fill="#1B1816"/>
<path d="M72.2061 408.758C72.2061 395.587 82.8832 384.91 96.054 384.91H111.29C124.461 384.91 135.138 395.587 135.138 408.758H72.2061Z" fill="#23211F"/>
<path d="M64.2568 415.082C64.2568 412.321 66.4954 410.082 69.2568 410.082H133.151C138.639 410.082 143.088 414.531 143.088 420.019C143.088 425.507 138.639 429.956 133.151 429.956H69.2568C66.4954 429.956 64.2568 427.717 64.2568 424.956V415.082Z" fill="#23211F"/>
<path d="M68.2314 431.281H138.45V466.327C138.45 471.85 133.973 476.327 128.45 476.327H73.2314C70.47 476.327 68.2314 474.088 68.2314 471.327V431.281Z" fill="#23211F"/>
<path d="M70.8813 525.348H136.463C136.463 527.543 134.684 529.322 132.489 529.322H74.856C72.6609 529.322 70.8813 527.543 70.8813 525.348Z" fill="#23211F"/>
<rect x="71.5439" y="498.85" width="65.5819" height="16.5611" fill="#23211F"/>
<rect x="71.5439" y="477.652" width="65.5819" height="11.2615" fill="#23211F"/>
<path d="M68.894 519.736C68.894 518.079 70.2372 516.736 71.894 516.736H136.132C138.144 516.736 139.775 518.367 139.775 520.379C139.775 522.391 138.144 524.023 136.132 524.023H71.894C70.2372 524.023 68.894 522.679 68.894 521.023V519.736Z" fill="#23211F"/>
<path d="M68.894 493.238C68.894 491.581 70.2372 490.238 71.894 490.238H136.132C138.144 490.238 139.775 491.869 139.775 493.881C139.775 495.894 138.144 497.525 136.132 497.525H71.894C70.2372 497.525 68.894 496.182 68.894 494.525V493.238Z" fill="#23211F"/>
<path d="M76.8433 529.322H130.501V536.259C130.501 537.916 129.158 539.259 127.501 539.259H76.8433V529.322Z" fill="#23211F"/>
<path d="M90.0923 538.596H125.864V547.195C125.864 548.3 124.969 549.195 123.864 549.195H92.0923C90.9877 549.195 90.0923 548.3 90.0923 547.195V538.596Z" fill="#4F4D4C"/>
<path d="M104.666 554.495H111.953V608.803C111.953 609.907 111.057 610.803 109.953 610.803H106.666C105.561 610.803 104.666 609.907 104.666 608.803V554.495Z" fill="#4F4D4C"/>
<path d="M76.8433 581.081C76.8433 575.179 81.6282 570.394 87.5307 570.394H128.426C134.328 570.394 139.113 575.179 139.113 581.081C139.113 583.227 137.373 584.967 135.227 584.967H80.7296C78.5832 584.967 76.8433 583.227 76.8433 581.081Z" fill="#4F4D4C"/>
<path d="M95.8112 549.426C95.2561 546.928 97.157 544.558 99.716 544.558H116.418C118.919 544.558 120.807 546.828 120.352 549.287L118.521 559.173C118.17 561.069 116.516 562.444 114.588 562.444H101.913C100.038 562.444 98.4148 561.142 98.0081 559.312L95.8112 549.426Z" fill="#4F4D4C"/>
<g filter="url(#filter0_f_55_217)">
<path d="M103.01 584.636C94.3984 590.046 76.9762 602.456 76.1812 608.815C75.1876 616.765 137.126 606.828 145.738 611.796C154.35 616.765 82.4744 613.121 70.2192 618.09C57.964 623.058 27.1604 635.644 52.6645 631.67C75.7213 628.076 134.511 612.031 151.7 616.082M107.647 670.15C126.452 670.984 146.369 673.12 147.394 673.735C149.05 674.728 175.548 672.741 179.522 663.467C183.497 654.193 131.826 649.224 97.3794 655.849C62.9323 662.473 60.6138 665.123 39.7468 670.754C18.8798 676.385 49.021 658.499 54.6518 652.205C60.2826 645.912 103.01 645.912 138.451 641.606C173.892 637.3 145.738 649.556 163.955 652.205C182.172 654.855 188.465 640.613 168.592 631.67C148.719 622.727 87.4427 641.275 76.1812 643.925C64.9198 646.575 42.3966 643.925 64.9197 634.982C87.4427 626.039 144.413 623.389 147.394 623.389C150.375 623.389 167.598 629.682 168.592 625.045C169.586 620.408 163.955 627.695 155.674 618.09C154.88 617.168 153.524 616.511 151.7 616.082M107.647 670.15C96.0588 669.636 84.8929 669.617 78.831 670.754C62.9323 673.735 48.0274 679.366 48.3586 681.684C48.6898 684.003 45.0463 684.996 60.6138 686.321C76.1812 687.646 102.348 679.034 109.635 678.703C116.921 678.372 152.362 674.397 163.955 681.684C175.548 688.971 180.516 692.946 174.554 693.939C168.592 694.933 174.223 690.296 147.394 688.309C120.565 686.321 53.6581 692.283 51.0083 695.264C48.3586 698.245 41.7341 705.863 46.3712 705.863C51.0083 705.863 51.0083 700.895 60.6138 700.564C70.2192 700.233 155.125 687.933 172.567 702.882C179.522 708.844 171.57 715.421 163.955 719.443C116.921 744.285 85.1242 737.661 147.394 714.475C153.908 709.617 161.968 702.882 100.36 725.405C34.2669 749.569 54.6518 724.934 120.896 705.863C132.827 702.429 161.305 695.264 104.335 702.882C82.2217 705.839 69.2255 718.693 64.9197 705.863C60.6138 693.033 76.5124 677.498 89.7613 673.735C100.36 670.724 106.102 670.09 107.647 670.15ZM151.7 616.082C151.037 615.939 152.693 600.535 123.546 584.636" stroke="#FF2B0E" stroke-width="6" stroke-linecap="round"/>
</g>
<g filter="url(#filter1_f_55_217)">
<path d="M103.01 584.636C94.3984 590.046 76.9762 602.456 76.1812 608.815C75.1876 616.765 137.126 606.828 145.738 611.796C154.35 616.765 82.4744 613.121 70.2192 618.09C57.964 623.058 27.1604 635.644 52.6645 631.67C75.7213 628.076 134.511 612.031 151.7 616.082M107.647 670.15C126.452 670.984 146.369 673.12 147.394 673.735C149.05 674.728 175.548 672.741 179.522 663.467C183.497 654.193 131.826 649.224 97.3794 655.849C62.9323 662.473 60.6138 665.123 39.7468 670.754C18.8798 676.385 49.021 658.499 54.6518 652.205C60.2826 645.912 103.01 645.912 138.451 641.606C173.892 637.3 145.738 649.556 163.955 652.205C182.172 654.855 188.465 640.613 168.592 631.67C148.719 622.727 87.4427 641.275 76.1812 643.925C64.9198 646.575 42.3966 643.925 64.9197 634.982C87.4427 626.039 144.413 623.389 147.394 623.389C150.375 623.389 167.598 629.682 168.592 625.045C169.586 620.408 163.955 627.695 155.674 618.09C154.88 617.168 153.524 616.511 151.7 616.082M107.647 670.15C96.0588 669.636 84.8929 669.617 78.831 670.754C62.9323 673.735 48.0274 679.366 48.3586 681.684C48.6898 684.003 45.0463 684.996 60.6138 686.321C76.1812 687.646 102.348 679.034 109.635 678.703C116.921 678.372 152.362 674.397 163.955 681.684C175.548 688.971 180.516 692.946 174.554 693.939C168.592 694.933 174.223 690.296 147.394 688.309C120.565 686.321 53.6581 692.283 51.0083 695.264C48.3586 698.245 41.7341 705.863 46.3712 705.863C51.0083 705.863 51.0083 700.895 60.6138 700.564C70.2192 700.233 155.125 687.933 172.567 702.882C179.522 708.844 171.57 715.421 163.955 719.443C116.921 744.285 85.1242 737.661 147.394 714.475C153.908 709.617 161.968 702.882 100.36 725.405C34.2669 749.569 54.6518 724.934 120.896 705.863C132.827 702.429 161.305 695.264 104.335 702.882C82.2217 705.839 69.2255 718.693 64.9197 705.863C60.6138 693.033 76.5124 677.498 89.7613 673.735C100.36 670.724 106.102 670.09 107.647 670.15ZM151.7 616.082C151.037 615.939 152.693 600.535 123.546 584.636" stroke="#FF9B3E" stroke-opacity="0.7" stroke-width="5" stroke-linecap="round"/>
</g>
<path d="M103.01 584.636C94.3984 590.046 76.9762 602.456 76.1812 608.815C75.1876 616.765 137.126 606.828 145.738 611.796C154.35 616.765 82.4744 613.121 70.2192 618.09C57.964 623.058 27.1604 635.644 52.6645 631.67C75.7213 628.076 134.511 612.031 151.7 616.082M107.647 670.15C126.452 670.984 146.369 673.12 147.394 673.735C149.05 674.728 175.548 672.741 179.522 663.467C183.497 654.193 131.826 649.224 97.3794 655.849C62.9323 662.473 60.6138 665.123 39.7468 670.754C18.8798 676.385 49.021 658.499 54.6518 652.205C60.2826 645.912 103.01 645.912 138.451 641.606C173.892 637.3 145.738 649.556 163.955 652.205C182.172 654.855 188.465 640.613 168.592 631.67C148.719 622.727 87.4427 641.275 76.1812 643.925C64.9198 646.575 42.3966 643.925 64.9197 634.982C87.4427 626.039 144.413 623.389 147.394 623.389C150.375 623.389 167.598 629.682 168.592 625.045C169.586 620.408 163.955 627.695 155.674 618.09C154.88 617.168 153.524 616.511 151.7 616.082M107.647 670.15C96.0588 669.636 84.8929 669.617 78.831 670.754C62.9323 673.735 48.0274 679.366 48.3586 681.684C48.6898 684.003 45.0463 684.996 60.6138 686.321C76.1812 687.646 102.348 679.034 109.635 678.703C116.921 678.372 152.362 674.397 163.955 681.684C175.548 688.971 180.516 692.946 174.554 693.939C168.592 694.933 174.223 690.296 147.394 688.309C120.565 686.321 53.6581 692.283 51.0083 695.264C48.3586 698.245 41.7341 705.863 46.3712 705.863C51.0083 705.863 51.0083 700.895 60.6138 700.564C70.2192 700.233 155.125 687.933 172.567 702.882C179.522 708.844 171.57 715.421 163.955 719.443C116.921 744.285 85.1242 737.661 147.394 714.475C153.908 709.617 161.968 702.882 100.36 725.405C34.2669 749.569 54.6518 724.934 120.896 705.863C132.827 702.429 161.305 695.264 104.335 702.882C82.2217 705.839 69.2255 718.693 64.9197 705.863C60.6138 693.033 76.5124 677.498 89.7613 673.735C100.36 670.724 106.102 670.09 107.647 670.15ZM151.7 616.082C151.037 615.939 152.693 600.535 123.546 584.636" stroke="#FFD976" stroke-width="2" stroke-linecap="round"/>
<g filter="url(#filter2_b_55_217)">
<path d="M59.6143 575.597C69.4547 563.551 78.8234 546.857 80.1482 539.259H136.119C140.094 555.446 146.684 564.981 154.666 575.597C174.538 602.024 215.957 613.587 215.957 686.923C215.957 756.626 161.973 789 109.644 789C63.2775 789 -1.30471 759.599 0.0200575 684.941C1.34482 610.283 37.7558 602.355 59.6143 575.597Z" fill="#BDB8B5" fill-opacity="0.15"/>
</g>
<g filter="url(#filter3_f_55_217)">
<path d="M124.603 537.953H116.617C116.065 537.953 115.617 537.501 115.618 536.948C115.625 529.354 115.802 528.414 120.156 528.414C120.481 528.414 121.01 527.417 121.241 526.339C121.356 525.799 121.802 525.348 122.355 525.348H130.34C130.892 525.348 131.35 525.804 131.186 526.332C130.85 527.413 129.963 528.414 128.544 528.414C126.691 528.414 125.603 529.095 125.603 529.436V536.953C125.603 537.505 125.155 537.953 124.603 537.953Z" fill="#FFE8C6" fill-opacity="0.84"/>
<path d="M121.948 519.723C121.948 519.171 122.396 518.723 122.948 518.723H130.534C131.086 518.723 131.534 519.171 131.534 519.723V522.36C131.534 522.912 131.086 523.36 130.534 523.36H122.948C122.396 523.36 121.948 522.912 121.948 522.36V519.723Z" fill="#FFE8C6" fill-opacity="0.83"/>
<rect x="120.351" y="502.162" width="9.58595" height="12.5864" rx="1" fill="#FFF4E3" fill-opacity="0.8"/>
<rect x="127.54" y="412.732" width="9.58595" height="16.5611" rx="1" fill="#FAFAFA" fill-opacity="0.65"/>
<rect x="121.948" y="492.225" width="9.58595" height="4.6371" rx="1" fill="#FAFAFA" fill-opacity="0.76"/>
<rect x="120.351" y="480.964" width="9.58595" height="7.28688" rx="1" fill="#FAFAFA" fill-opacity="0.73"/>
<rect x="121.948" y="433.93" width="9.58595" height="41.7339" rx="1" fill="#FAFAFA" fill-opacity="0.7"/>
<path d="M110.134 375.928C110.035 378.652 109.792 386.271 110.171 386.391C122.941 390.423 122.941 398.158 122.941 406.776C122.945 406.811 122.947 406.846 122.949 406.882C122.973 407.391 123.327 407.777 123.837 407.777H130.745C131.295 407.777 131.742 407.333 131.743 406.783C131.744 406.476 131.743 406.195 131.739 406.108C131.115 390.54 119.734 386.897 118.354 386.391C117.247 385.985 117.914 378.894 118.223 376.095C118.289 375.497 117.821 374.973 117.219 374.973H111.131C110.594 374.973 110.154 375.392 110.134 375.928Z" fill="#FAFAFA" fill-opacity="0.6"/>
<g filter="url(#filter4_f_55_217)">
<path d="M72 525V525C73.0988 526.757 74.564 526.757 77.4942 526.757C79.8828 526.757 82.6221 527.811 82.6221 530.27C82.6221 535.541 86.9654 535.869 94.343 536.595C108.628 538 135 538 135 538H87.3837C77.1279 538 79.3256 533.081 79.3256 530.27C79.3256 528.514 78.2267 528.514 76.3953 528.514C72 528.514 72 526.054 72 525Z" fill="#FFD4B4" fill-opacity="0.8"/>
</g>
<g filter="url(#filter5_f_55_217)">
<path d="M70 518C71.2463 524.277 95.7539 523.169 124 523.908C91.4831 523.908 72.4924 524.277 71.6616 523.538C70.0001 521.692 70 519.631 70 518Z" fill="#FFD4B4" fill-opacity="0.8"/>
</g>
<g filter="url(#filter6_f_55_217)">
<path d="M70 492C71.2463 497.231 95.7539 496.308 124 496.923C91.4831 496.923 72.4924 497.231 71.6616 496.615C70.0001 495.077 70 493.359 70 492Z" fill="#FFD4B4" fill-opacity="0.85"/>
</g>
</g>
<g filter="url(#filter7_f_55_217)">
<path d="M86.9998 583.5C78.9998 583.1 79.5 582 79.5 580L79.4998 577C80.4997 582 84.4999 581.5 86.9998 582C88.9997 582.4 114.5 583.167 127 583.5C117 583.667 94.9998 583.9 86.9998 583.5Z" fill="#FFD8B5"/>
</g>
<g filter="url(#filter8_f_55_217)">
<path d="M96.5 548C95.5 546.5 92 549.255 92 543.5V540.5C92 541.833 92.7 544.5 95.5 544.5C98.3 544.5 99.25 546.5 99.5 548C100 551 101.114 552.899 102 556C103 559.5 105 560.5 111 561C103 561 99.9 561 99.5 559C98.8333 555.667 98 550.25 96.5 548Z" fill="#FFD9B6"/>
</g>
<rect x="52.333" y="439.23" width="40.409" height="14.5738" rx="7.28688" fill="#1B1816"/>
<path d="M36.4341 453.236C36.4341 457.94 40.2473 461.753 44.9512 461.753C53.4182 461.753 60.282 454.889 60.282 446.422L60.282 441.312C60.2821 432.845 53.4182 425.981 44.9512 425.981C40.2473 425.981 36.4341 429.794 36.4341 434.498L36.4341 453.236Z" fill="#1B1816"/>
<path d="M54.9829 437.905C54.9829 431.319 49.6444 425.981 43.0589 425.981C36.4735 425.981 31.1349 431.32 31.1349 437.905V449.829C31.1349 456.414 36.4735 461.753 43.0589 461.753C49.6444 461.753 54.9829 456.414 54.9829 449.829V437.905Z" fill="#23211F"/>
<g filter="url(#filter9_f_55_217)">
<path d="M52.0019 456.785C39.4155 464.072 32.7911 455.791 32.1286 445.854C30.1413 455.46 39.7467 467.384 52.0019 456.785Z" fill="#FAFAFA" fill-opacity="0.8"/>
</g>
<defs>
<filter id="filter0_f_55_217" x="17.4805" y="569.636" width="178.368" height="180.81" filterUnits="userSpaceOnUse" color-interpolation-filters="sRGB">
<feFlood flood-opacity="0" result="BackgroundImageFix"/>
<feBlend mode="normal" in="SourceGraphic" in2="BackgroundImageFix" result="shape"/>
<feGaussianBlur stdDeviation="6" result="effect1_foregroundBlur_55_217"/>
</filter>
<filter id="filter1_f_55_217" x="19.9805" y="572.136" width="173.368" height="175.81" filterUnits="userSpaceOnUse" color-interpolation-filters="sRGB">
<feFlood flood-opacity="0" result="BackgroundImageFix"/>
<feBlend mode="normal" in="SourceGraphic" in2="BackgroundImageFix" result="shape"/>
<feGaussianBlur stdDeviation="5" result="effect1_foregroundBlur_55_217"/>
</filter>
<filter id="filter2_b_55_217" x="-3" y="536.259" width="221.957" height="255.741" filterUnits="userSpaceOnUse" color-interpolation-filters="sRGB">
<feFlood flood-opacity="0" result="BackgroundImageFix"/>
<feGaussianBlur in="BackgroundImageFix" stdDeviation="1.5"/>
<feComposite in2="SourceAlpha" operator="in" result="effect1_backgroundBlur_55_217"/>
<feBlend mode="normal" in="SourceGraphic" in2="effect1_backgroundBlur_55_217" result="shape"/>
</filter>
<filter id="filter3_f_55_217" x="68.5" y="373.473" width="70.126" height="166.027" filterUnits="userSpaceOnUse" color-interpolation-filters="sRGB">
<feFlood flood-opacity="0" result="BackgroundImageFix"/>
<feBlend mode="normal" in="SourceGraphic" in2="BackgroundImageFix" result="shape"/>
<feGaussianBlur stdDeviation="0.75" result="effect1_foregroundBlur_55_217"/>
</filter>
<filter id="filter4_f_55_217" x="70" y="523" width="67" height="17" filterUnits="userSpaceOnUse" color-interpolation-filters="sRGB">
<feFlood flood-opacity="0" result="BackgroundImageFix"/>
<feBlend mode="normal" in="SourceGraphic" in2="BackgroundImageFix" result="shape"/>
<feGaussianBlur stdDeviation="1" result="effect1_foregroundBlur_55_217"/>
</filter>
<filter id="filter5_f_55_217" x="68" y="516" width="58" height="10" filterUnits="userSpaceOnUse" color-interpolation-filters="sRGB">
<feFlood flood-opacity="0" result="BackgroundImageFix"/>
<feBlend mode="normal" in="SourceGraphic" in2="BackgroundImageFix" result="shape"/>
<feGaussianBlur stdDeviation="1" result="effect1_foregroundBlur_55_217"/>
</filter>
<filter id="filter6_f_55_217" x="68" y="490" width="58" height="9" filterUnits="userSpaceOnUse" color-interpolation-filters="sRGB">
<feFlood flood-opacity="0" result="BackgroundImageFix"/>
<feBlend mode="normal" in="SourceGraphic" in2="BackgroundImageFix" result="shape"/>
<feGaussianBlur stdDeviation="1" result="effect1_foregroundBlur_55_217"/>
</filter>
<filter id="filter7_f_55_217" x="77.4937" y="575" width="51.5063" height="10.7209" filterUnits="userSpaceOnUse" color-interpolation-filters="sRGB">
<feFlood flood-opacity="0" result="BackgroundImageFix"/>
<feBlend mode="normal" in="SourceGraphic" in2="BackgroundImageFix" result="shape"/>
<feGaussianBlur stdDeviation="1" result="effect1_foregroundBlur_55_217"/>
</filter>
<filter id="filter8_f_55_217" x="90" y="538.5" width="23" height="24.5" filterUnits="userSpaceOnUse" color-interpolation-filters="sRGB">
<feFlood flood-opacity="0" result="BackgroundImageFix"/>
<feBlend mode="normal" in="SourceGraphic" in2="BackgroundImageFix" result="shape"/>
<feGaussianBlur stdDeviation="1" result="effect1_foregroundBlur_55_217"/>
</filter>
<filter id="filter9_f_55_217" x="29.8672" y="443.854" width="24.1348" height="19.0817" filterUnits="userSpaceOnUse" color-interpolation-filters="sRGB">
<feFlood flood-opacity="0" result="BackgroundImageFix"/>
<feBlend mode="normal" in="SourceGraphic" in2="BackgroundImageFix" result="shape"/>
<feGaussianBlur stdDeviation="1" result="effect1_foregroundBlur_55_217"/>
</filter>
</defs>
</svg>
